<?xml version="1.0" encoding="iso-8859-1"?>
<!-- Uploaded to: SVG Repo, www.svgrepo.com, Generator: SVG Repo Mixer Tools -->
<svg height="800px" width="800px" version="1.1" id="Capa_1" xmlns="http://www.w3.org/2000/svg" xmlns:xlink="http://www.w3.org/1999/xlink" 
	 viewBox="0 0 284.491 284.491" xml:space="preserve">
<g>
	<path style="fill:#FFFFFF;" d="M281.026,58.608c1.088-23.997-1.86-44.084-28.218-49.001c-28.163-5.243-57.844,1.599-86.231,1.659
		C115.58,11.364,64.6,12.958,13.603,13.056c-3.927,0.011-6.924,1.425-9.094,3.541C1.817,18.789-0.005,22.123,0,26.653
		c0.141,78.578,3.492,157.118,3.633,235.696c0.011,7.685,6.184,13.239,13.598,13.598c44.742,2.186,89.451-0.005,134.165-1.882
		c22.355-0.936,44.709-1.632,67.08-1.746c14.038-0.071,34.951,4.52,47.586-4.139c17.459-11.971,17.302-32.988,18.096-52.59
		c1.207-29.92-1.12-60.069-3.013-89.913C279.693,102.893,279.992,81.403,281.026,58.608z M68.81,39.941
		c43.736-0.413,87.455-1.436,131.12-3.465c0.93,10.546,2.828,20.978,4.09,31.498c2.807,23.431-13.331,20.587-31.117,18.961
		c-33.711-3.068-70.294-4.873-103.995,2.034C66.215,72.869,68.173,56.411,68.81,39.941z M191.27,247.441
		c-31.617,1.115-63.381,2.214-95.075,2.545c0.147-25.857,0.228-51.503-2.377-77.191c27.968-4.221,91.708-11.482,95.64,1.349
		C196.53,197.228,188.426,223.199,191.27,247.441z M256.049,230.7c-1.115,13.527-2.203,14.729-16.502,15.137
		c-6.978,0.201-13.984,0.435-20.984,0.669c-5.722-29.317,12.461-76.68-13.995-98.175c-13.859-11.264-35.359-7.778-51.693-6.402
		c-26.015,2.192-51.856,1.343-77.572,6.532c-7.908,1.594-10.503,9.823-9.497,16.725c4.09,28.158,3.486,56.517,3.214,84.871
		c-12.809-0.071-25.585-0.364-38.329-0.827c-0.424-69.691-2.921-139.36-3.356-209.05c4.759-0.016,9.518-0.049,14.278-0.071
		c-0.827,23.355-3.796,46.357,4.248,68.869c2.469,6.913,9.203,11.656,16.725,9.497c30.105-8.637,60.754-5.983,91.654-5.075
		c16.687,0.49,36.485,5.167,52.813,0.974c36.121-9.274,22.452-51.687,19.923-79.318c9.943-0.625,25.036-0.936,26.363,3.981
		c3.095,11.46,0.218,26.45-0.587,38.122c-1.126,16.274,0.147,32.254,1.191,48.511c1.556,24.226,2.915,48.462,3.198,72.737
		C257.268,209.188,256.936,219.958,256.049,230.7z"/>
	<path style="fill:#FFFFFF;" d="M157.33,190.581c-0.256,13.494-3.051,26.521,0.239,39.885c2.099,8.507,15.208,4.895,13.114-3.617
		c-2.948-11.966,0.011-24.155,0.239-36.262C171.097,181.803,157.494,181.824,157.33,190.581z"/>
</g>
</svg>